HIERARCHY
ROOT Hips
{
	OFFSET 0.000000 0.000000 0.000000
	CHANNELS 6 Xposition Yposition Zposition Xrotation Yrotation Zrotation
	JOINT LeftUpLeg_virtual
	{
		OFFSET 0.000000 0.000000 0.000000
		CHANNELS 3 Xrotation Yrotation Zrotation
		JOINT LeftUpLeg
		{
			OFFSET 13.026900 -6.336304 -1.092800
			CHANNELS 3 Xrotation Yrotation Zrotation
			JOINT LeftLeg
			{
				OFFSET 0.524474 -46.096886 9.782700
				CHANNELS 3 Xrotation Yrotation Zrotation
				JOINT LeftFoot
				{
					OFFSET -0.524474 -53.427422 -12.948200
					CHANNELS 3 Xrotation Yrotation Zrotation
					JOINT LeftToeBase
					{
						OFFSET 0.192200 -14.009700 16.364100
						CHANNELS 3 Xrotation Yrotation Zrotation
						JOINT LeftToe_End
						{
							OFFSET -1.784700 -0.561700 9.474800
							CHANNELS 3 Xrotation Yrotation Zrotation
							End Site
							{
								OFFSET 0 0 0
							}
						}
					}
				}
			}
		}
	}
	JOINT RightUpLeg_virtual
	{
		OFFSET 0.000000 0.000000 0.000000
		CHANNELS 3 Xrotation Yrotation Zrotation
		JOINT RightUpLeg
		{
			OFFSET -12.883000 -6.336304 -1.092800
			CHANNELS 3 Xrotation Yrotation Zrotation
			JOINT RightLeg
			{
				OFFSET -0.524587 -46.096825 9.782800
				CHANNELS 3 Xrotation Yrotation Zrotation
				JOINT RightFoot
				{
					OFFSET 0.524587 -53.427383 -12.948300
					CHANNELS 3 Xrotation Yrotation Zrotation
					JOINT RightToeBase
					{
						OFFSET -0.192200 -14.009700 16.364100
						CHANNELS 3 Xrotation Yrotation Zrotation
						JOINT RightToe_End
						{
							OFFSET 1.784700 -0.561700 9.474800
							CHANNELS 3 Xrotation Yrotation Zrotation
							End Site
							{
								OFFSET 0 0 0
							}
						}
					}
				}
			}
		}
	}
	JOINT Spine_virtual
	{
		OFFSET 0.000000 0.000000 0.000000
		CHANNELS 3 Xrotation Yrotation Zrotation
		JOINT Spine
		{
			OFFSET 0.072000 7.257294 -0.789700
			CHANNELS 3 Xrotation Yrotation Zrotation
			JOINT Spine1
			{
				OFFSET 0.000000 12.508769 -0.658067
				CHANNELS 3 Xrotation Yrotation Zrotation
				JOINT Spine1_split
				{
					OFFSET 0.000000 12.508769 -0.658067
					CHANNELS 3 Xrotation Yrotation Zrotation
					JOINT Spine2
					{
						OFFSET 0.000000 12.508769 -0.658067
						CHANNELS 3 Xrotation Yrotation Zrotation
						JOINT Neck_virtual
						{
							OFFSET 0.000000 0.000000 0.000000
							CHANNELS 3 Xrotation Yrotation Zrotation
							JOINT Neck
							{
								OFFSET 0.000000 14.033295 7.520400
								CHANNELS 3 Xrotation Yrotation Zrotation
								JOINT Head
								{
									OFFSET 0.000000 8.198502 5.703100
									CHANNELS 3 Xrotation Yrotation Zrotation
									JOINT HeadTop_End
									{
										OFFSET 0.000000 17.760803 13.332701
										CHANNELS 3 Xrotation Yrotation Zrotation
										End Site
										{
											OFFSET 0 0 0
										}
									}
								}
							}
						}
						JOINT LeftShoulder_virtual
						{
							OFFSET 0.000000 0.000000 0.000000
							CHANNELS 3 Xrotation Yrotation Zrotation
							JOINT LeftShoulder
							{
								OFFSET 6.292450 5.785301 -0.669000
								CHANNELS 3 Xrotation Yrotation Zrotation
								JOINT LeftShoulder_split
								{
									OFFSET 6.292450 5.785301 -0.669000
									CHANNELS 3 Xrotation Yrotation Zrotation
									JOINT LeftArm
									{
										OFFSET 13.907140 -6.093903 1.965100
										CHANNELS 3 Xrotation Yrotation Zrotation
										JOINT LeftForeArm
										{
											OFFSET 34.140198 0.000000 0.000000
											CHANNELS 3 Xrotation Yrotation Zrotation
											JOINT LeftHand
											{
												OFFSET 40.960209 0.000000 0.000000
												CHANNELS 3 Xrotation Yrotation Zrotation
												End Site
												{
													OFFSET 0 0 0
												}
											}
										}
									}
								}
							}
						}
						JOINT RightShoulder_virtual
						{
							OFFSET 0.000000 0.000000 0.000000
							CHANNELS 3 Xrotation Yrotation Zrotation
							JOINT RightShoulder
							{
								OFFSET -6.292450 5.785301 -0.669000
								CHANNELS 3 Xrotation Yrotation Zrotation
								JOINT RightShoulder_split
								{
									OFFSET -6.292450 5.785301 -0.669000
									CHANNELS 3 Xrotation Yrotation Zrotation
									JOINT RightArm
									{
										OFFSET -13.907140 -6.093903 1.965100
										CHANNELS 3 Xrotation Yrotation Zrotation
										JOINT RightForeArm
										{
											OFFSET -34.140198 0.000000 0.000000
											CHANNELS 3 Xrotation Yrotation Zrotation
											JOINT RightHand
											{
												OFFSET -40.960209 0.000000 0.000000
												CHANNELS 3 Xrotation Yrotation Zrotation
												End Site
												{
													OFFSET 0 0 0
												}
											}
										}
									}
								}
							}
						}
					}
				}
			}
		}
	}
}
MOTION
Frames: 10
Frame Time: 0.03333333
1.650952 91.321442 1.323132 0.000000 0.000000 0.000000 6.528697 -4.836931 -19.222077 -73.756003 23.429910 21.288506 86.116719 -3.388772 3.171794 25.381955 2.857800 21.410280 -27.893430 -3.884681 0.462659 0.000000 0.000000 0.000000 4.602380 -3.427818 -19.675000 -26.292634 3.832087 -4.649600 52.633926 11.377547 -2.336941 7.961054 16.966571 -2.165963 -30.143910 4.198559 -1.631240 0.000000 0.000000 0.000000 0.426164 1.422157 -18.167622 7.797239 5.821993 2.244555 1.162007 2.336240 1.678616 1.252326 1.494351 1.127959 0.000000 0.000000 0.000000 1.799001 1.383821 2.746683 -6.708677 3.251760 -3.468461 -14.646675 7.270844 2.684317 0.000000 0.000000 0.000000 1.684666 1.735982 1.488597 -1.307608 -4.964056 -4.531531 -1.251895 -0.803537 -1.091424 62.306174 -17.774758 -43.591360 10.404931 -76.297297 10.341268 0.000000 0.000000 0.000000 2.639959 2.129924 2.296447 2.686270 -7.109974 6.719722 7.855811 4.721350 -5.714818 -15.855864 20.530772 55.312525 9.809396 78.395252 -9.273216 0.000000 0.000000 0.000000 
1.704370 93.138435 16.819416 0.000000 0.000000 0.000000 4.028519 -7.544749 -19.576420 -75.468720 22.503038 20.404302 69.559343 -0.427325 0.907139 23.033020 4.571410 20.350981 -22.620617 -2.751117 -1.150276 0.000000 0.000000 0.000000 4.400025 -7.916365 -20.071334 -20.600694 2.815478 -5.544447 52.505669 11.411426 -2.273498 11.918222 16.858736 -1.148997 -30.448854 4.148816 -1.646810 0.000000 0.000000 0.000000 1.274212 -1.644734 -18.989148 5.929741 7.140582 2.466884 0.963129 2.809538 1.377395 0.708790 4.379146 0.455729 0.000000 0.000000 0.000000 1.707597 1.838162 2.622967 -5.932731 2.640866 -3.283793 -15.427553 7.774459 3.461022 0.000000 0.000000 0.000000 1.351759 2.361703 1.587515 -1.132438 -2.693971 -3.484590 -1.050380 1.009299 -1.266508 64.963726 -15.250738 -42.535778 9.259314 -79.401933 8.545052 0.000000 0.000000 0.000000 1.631584 2.464852 1.940882 1.891192 -5.558331 5.674409 6.741594 5.590353 -6.096101 -23.192689 25.899929 59.165557 85.039946 88.668368 -85.477195 0.000000 0.000000 0.000000 
2.932445 94.813202 36.108578 0.000000 0.000000 0.000000 2.544823 -9.297717 -19.208406 -73.727644 17.696586 14.899311 52.315622 2.461552 0.028770 21.378064 7.340158 18.458357 -11.205912 -1.609113 -3.881505 0.000000 0.000000 0.000000 4.802763 -8.848574 -19.639534 -13.269894 2.919245 -6.640455 53.548523 12.027606 -3.176088 17.642782 17.294109 3.104182 -34.680938 3.645853 -0.573630 0.000000 0.000000 0.000000 2.186676 -3.437250 -18.891762 4.389778 9.684332 2.526294 0.898231 3.861473 1.095446 0.453778 4.725933 0.142973 0.000000 0.000000 0.000000 1.433988 2.825625 2.262724 -4.831005 1.682175 -2.230817 -15.609906 8.963981 3.851748 0.000000 0.000000 0.000000 0.950107 3.588986 1.510705 -1.119460 0.138985 -2.509647 -1.025405 1.249128 -0.655394 66.867190 -12.869635 -43.765059 8.409697 -83.371434 7.043291 0.000000 0.000000 0.000000 1.059834 3.483585 1.433288 1.207070 -3.621005 4.698485 6.588270 4.049517 -5.617638 -28.755978 31.773767 62.754214 175.264102 78.875462 -176.612395 0.000000 0.000000 0.000000 
5.338143 94.547920 56.974983 0.000000 0.000000 0.000000 1.661784 -8.519075 -18.378951 -69.892930 10.205810 6.705758 40.965791 3.740802 0.540480 20.494807 9.836178 16.711789 -1.948243 -1.183806 -5.639265 0.000000 0.000000 0.000000 5.816226 -5.995117 -18.667221 -7.173204 3.933028 -7.793061 56.560568 12.338560 -4.735062 21.959784 16.604116 6.794929 -37.859506 2.657009 1.208554 0.000000 0.000000 0.000000 2.020957 -2.596590 -18.284116 3.852202 12.528234 2.242149 1.087549 4.969474 0.953559 0.951266 3.316799 0.430546 0.000000 0.000000 0.000000 0.991682 3.818548 1.837434 -3.744129 1.028333 -0.622206 -15.137869 10.809849 3.809453 0.000000 0.000000 0.000000 0.700777 4.785404 1.323960 -1.177392 2.494165 -2.017910 -0.278067 0.619133 -0.116679 65.955961 -11.762190 -46.647760 7.061703 -86.349874 5.480461 0.000000 0.000000 0.000000 1.005862 4.585815 0.908007 0.622813 -1.918736 4.265827 7.438003 1.673900 -4.003206 -28.165735 35.713802 63.937148 177.487342 71.239016 -179.426870 0.000000 0.000000 0.000000 
8.697205 92.098923 78.049133 0.000000 0.000000 0.000000 1.058584 -4.729334 -17.165739 -65.391978 3.674190 -1.130707 36.235229 3.813465 1.330057 16.493749 10.773477 17.261681 -0.271951 -0.916669 -5.255842 0.000000 0.000000 0.000000 7.297171 -0.382073 -17.744193 -5.038945 5.637368 -8.211078 62.340748 10.464579 -5.876422 22.146711 12.306543 6.208622 -34.932989 1.560119 3.289840 0.000000 0.000000 0.000000 1.355973 1.430073 -17.280018 4.395485 14.389402 1.659645 1.556432 5.607784 0.878639 0.500933 2.250183 0.708805 0.000000 0.000000 0.000000 0.537586 4.245301 1.461500 -2.915668 0.917682 0.875304 -14.107200 13.011626 3.441403 0.000000 0.000000 0.000000 0.677031 5.291329 1.016581 -1.225346 3.657150 -2.162385 1.190262 0.135405 -0.149505 60.937636 -12.255465 -49.875715 7.467924 -86.282795 6.221916 0.000000 0.000000 0.000000 1.337403 5.122970 0.504196 0.177879 -0.826265 4.595418 8.462895 0.610325 -1.872798 -19.529755 36.075365 61.960894 177.433220 68.774131 -179.459286 0.000000 0.000000 0.000000 
12.794465 88.172577 98.837433 0.000000 0.000000 0.000000 0.442322 0.427748 -15.956772 -58.186600 1.377678 -6.945732 37.751542 4.347077 1.553102 6.312386 9.841459 21.607129 -4.531766 -0.665089 -4.049037 0.000000 0.000000 0.000000 8.182649 7.257554 -17.617008 -9.552662 7.849798 -7.497490 70.799869 6.390161 -5.852461 17.612638 4.731926 1.352870 -25.655700 0.874395 5.366689 0.000000 0.000000 0.000000 0.020131 7.480276 -15.647803 5.399903 14.262991 0.761509 2.132217 5.262945 0.775135 0.042275 1.327382 -0.072554 0.000000 0.000000 0.000000 0.153248 3.758207 1.147973 -2.423935 1.464740 1.712745 -12.540179 15.795130 3.039672 0.000000 0.000000 0.000000 0.969343 4.725787 0.640917 -1.186224 3.541598 -2.754920 2.236944 -0.843220 -1.483296 51.003813 -13.874729 -52.606377 6.884137 -82.629696 6.671935 0.000000 0.000000 0.000000 1.850516 4.655661 0.306073 -0.088480 -0.850910 5.495433 8.221504 0.593859 0.261683 -4.638912 31.891410 58.789255 176.436326 71.048447 -178.003035 0.000000 0.000000 0.000000 
16.615808 84.503265 119.354843 0.000000 0.000000 0.000000 -0.491741 6.047178 -14.774671 -49.060638 2.467118 -11.471182 44.320643 5.518823 1.442222 -7.453059 7.317650 26.434934 -9.047644 -0.407314 -3.053644 0.000000 0.000000 0.000000 8.701851 16.294888 -17.773030 -20.378529 10.074685 -5.952761 79.366839 2.154113 -4.630140 10.468147 -2.452916 -4.477165 -15.102093 0.695597 6.618809 0.000000 0.000000 0.000000 -1.617119 14.261777 -14.224959 6.259844 11.869016 -0.102107 2.630884 3.846164 0.653390 0.137032 0.811418 -0.869511 0.000000 0.000000 0.000000 -0.083807 2.288203 0.928624 -1.940002 2.571740 1.801354 -10.787927 19.488369 2.848474 0.000000 0.000000 0.000000 1.517960 3.079006 0.347117 -1.072154 2.549165 -3.526655 2.592292 -1.529717 -3.974847 36.765815 -16.306163 -54.067368 5.239414 -77.413747 6.490743 0.000000 0.000000 0.000000 2.201384 3.098043 0.241303 -0.381533 -1.892445 6.252133 6.191229 1.018682 1.878133 11.685148 23.695157 57.280791 174.123624 75.876927 -175.117294 0.000000 0.000000 0.000000 
20.537342 83.142845 139.224884 0.000000 0.000000 0.000000 -0.715949 11.599187 -13.819739 -38.329618 5.080376 -15.092744 52.540646 6.651644 0.836481 -20.149307 4.423321 29.375138 -11.480551 -0.238254 -1.950383 0.000000 0.000000 0.000000 8.543932 24.198942 -17.732332 -35.709752 12.327876 -3.350380 83.758193 -0.458162 -3.685721 4.906247 -6.497935 -7.564302 -7.668488 0.637180 6.648411 0.000000 0.000000 0.000000 -1.606059 19.964706 -13.417164 6.342162 7.361339 -0.472537 2.913862 1.672025 0.500189 0.007867 0.716465 -0.994329 0.000000 0.000000 0.000000 -0.118794 0.095888 0.774958 -1.080522 3.851135 1.267939 -9.186600 23.413060 2.956079 0.000000 0.000000 0.000000 2.079631 0.728968 0.259114 -0.960257 1.371700 -4.109950 1.837848 -1.256175 -6.788156 20.478225 -18.719692 -53.711122 3.582099 -74.391948 6.226457 0.000000 0.000000 0.000000 2.334089 0.795555 0.257032 -0.687513 -3.835996 5.961881 3.415832 2.037190 2.463122 26.189703 14.243046 57.480468 171.498059 79.089991 -171.956091 0.000000 0.000000 0.000000 
24.830290 84.463112 158.663681 0.000000 0.000000 0.000000 0.406736 17.332548 -13.528697 -26.767069 7.864773 -17.416448 57.627979 7.696757 -0.521116 -27.881590 2.364237 31.014424 -13.546595 -0.532117 -0.287634 0.000000 0.000000 0.000000 7.590051 29.239155 -16.915563 -51.559954 14.336811 -0.154150 81.095423 -0.974512 -3.956779 3.470092 -6.879643 -5.997189 -3.019775 0.572617 5.656936 0.000000 0.000000 0.000000 0.124237 23.577996 -13.336133 5.383901 1.625084 -0.481193 2.923620 -0.790488 0.422689 0.799201 0.626074 -1.107951 0.000000 0.000000 0.000000 0.011835 -2.265857 0.710697 0.203907 4.979879 0.436745 -8.168158 27.162184 3.433791 0.000000 0.000000 0.000000 2.384576 -1.770653 0.513224 -0.893085 0.474513 -4.226182 0.571891 0.415709 -8.734533 5.474558 -20.353795 -51.266041 1.992444 -77.468771 5.535784 0.000000 0.000000 0.000000 2.256517 -1.749086 0.324301 -0.923148 -6.265196 4.433436 1.332592 3.623292 1.883184 37.766032 5.684954 58.278002 172.782763 77.876943 -172.858373 0.000000 0.000000 0.000000 
29.701662 87.738281 176.528687 0.000000 0.000000 0.000000 2.748614 22.630543 -13.707593 -17.147110 9.285157 -17.869708 58.140906 7.960194 -1.777887 -27.124892 2.070278 30.978606 -17.261423 -1.384077 1.801906 0.000000 0.000000 0.000000 6.331403 31.058888 -15.391485 -63.550129 15.931695 3.079025 71.258865 0.498901 -4.929950 5.517235 -4.127733 -0.856581 0.058714 0.461596 4.106533 0.000000 0.000000 0.000000 3.482653 25.229804 -13.992183 3.639145 -4.066179 -0.581710 2.708716 -3.027518 0.461993 2.139876 0.801018 -0.834504 0.000000 0.000000 0.000000 0.346567 -4.342976 0.751464 1.625938 5.565578 -0.137816 -8.007080 30.697069 4.123702 0.000000 0.000000 0.000000 2.278712 -3.931462 1.013817 -0.876348 0.045466 -4.079062 -0.736719 3.025896 -8.454141 -5.918963 -20.403303 -47.227821 -3.054030 -86.997233 0.502064 0.000000 0.000000 0.000000 1.981004 -4.099124 0.441380 -1.022627 -8.548987 2.206224 0.304948 5.260343 0.333357 46.435123 -0.829697 58.177017 175.814397 72.872265 -175.709909 0.000000 0.000000 0.000000 
